#tb 0: 1/25
#media_type 0: video
#codec_id 0: rawvideo
#dimensions 0: 256x3212
#sar 0: 0/1
0,          0,          0,        1,  1644544, 0xcea2b72d
0,          1,          1,        1,  1644544, 0xcd80819d
0,          2,          2,        1,  1644544, 0x4a27745e
0,          3,          3,        1,  1644544, 0xdf82b72c
0,          4,          4,        1,  1644544, 0xdf87cb6e
